<mxfile host="app.diagrams.net" modified="2021-11-10T08:23:27.597Z" agent="5.0 (Windows NT 10.0; Win64; x64) AppleWebKit/537.36 (KHTML, like Gecko) Chrome/95.0.4638.69 Safari/537.36 Edg/95.0.1020.44" etag="2nzY0-yN-rKS73GH4DH0" version="15.7.1" type="github">
  <diagram name="Page-1" id="13e1069c-82ec-6db2-03f1-153e76fe0fe0">
    <mxGraphModel dx="868" dy="492" grid="1" gridSize="10" guides="1" tooltips="1" connect="1" arrows="1" fold="1" page="1" pageScale="1" pageWidth="1100" pageHeight="850" background="none" math="0" shadow="0">
      <root>
        <mxCell id="0" />
        <mxCell id="1" parent="0" />
        <mxCell id="7baba1c4bc27f4b0-2" value="MP" style="shape=umlLifeline;perimeter=lifelinePerimeter;whiteSpace=wrap;html=1;container=1;collapsible=0;recursiveResize=0;outlineConnect=0;rounded=1;shadow=0;comic=0;labelBackgroundColor=none;strokeWidth=1;fontFamily=Verdana;fontSize=12;align=center;" parent="1" vertex="1">
          <mxGeometry x="220" y="80" width="170" height="1450" as="geometry" />
        </mxCell>
        <mxCell id="AwvMzt33uURzhuPgtbTJ-15" value="傳遞SN 啓動測試" style="text;html=1;align=center;verticalAlign=middle;resizable=0;points=[];autosize=1;strokeColor=none;fillColor=none;" vertex="1" parent="7baba1c4bc27f4b0-2">
          <mxGeometry x="-70" y="180" width="110" height="20" as="geometry" />
        </mxCell>
        <mxCell id="AwvMzt33uURzhuPgtbTJ-16" value="" style="html=1;points=[];perimeter=orthogonalPerimeter;rounded=0;shadow=0;comic=0;labelBackgroundColor=none;strokeWidth=1;fontFamily=Verdana;fontSize=12;align=center;" vertex="1" parent="7baba1c4bc27f4b0-2">
          <mxGeometry x="80" y="200" width="10" height="30" as="geometry" />
        </mxCell>
        <mxCell id="AwvMzt33uURzhuPgtbTJ-17" value="" style="endArrow=classic;html=1;rounded=0;" edge="1" parent="7baba1c4bc27f4b0-2" target="7baba1c4bc27f4b0-3">
          <mxGeometry width="50" height="50" relative="1" as="geometry">
            <mxPoint x="80" y="230" as="sourcePoint" />
            <mxPoint x="100" y="180" as="targetPoint" />
          </mxGeometry>
        </mxCell>
        <mxCell id="AwvMzt33uURzhuPgtbTJ-38" value="" style="html=1;points=[];perimeter=orthogonalPerimeter;rounded=0;shadow=0;comic=0;labelBackgroundColor=none;strokeWidth=1;fontFamily=Verdana;fontSize=12;align=center;" vertex="1" parent="7baba1c4bc27f4b0-2">
          <mxGeometry x="80" y="440" width="10" height="30" as="geometry" />
        </mxCell>
        <mxCell id="AwvMzt33uURzhuPgtbTJ-35" value="遠焦測試" style="text;html=1;align=center;verticalAlign=middle;resizable=0;points=[];autosize=1;strokeColor=none;fillColor=none;" vertex="1" parent="7baba1c4bc27f4b0-2">
          <mxGeometry x="90" y="210" width="60" height="20" as="geometry" />
        </mxCell>
        <mxCell id="AwvMzt33uURzhuPgtbTJ-37" value="結果回傳" style="text;html=1;align=center;verticalAlign=middle;resizable=0;points=[];autosize=1;strokeColor=none;fillColor=none;" vertex="1" parent="7baba1c4bc27f4b0-2">
          <mxGeometry x="90" y="410" width="60" height="20" as="geometry" />
        </mxCell>
        <mxCell id="AwvMzt33uURzhuPgtbTJ-84" value="近焦測試" style="text;html=1;align=center;verticalAlign=middle;resizable=0;points=[];autosize=1;strokeColor=none;fillColor=none;" vertex="1" parent="7baba1c4bc27f4b0-2">
          <mxGeometry x="90" y="450" width="60" height="20" as="geometry" />
        </mxCell>
        <mxCell id="AwvMzt33uURzhuPgtbTJ-108" value="結果回傳" style="text;html=1;align=center;verticalAlign=middle;resizable=0;points=[];autosize=1;strokeColor=none;fillColor=none;" vertex="1" parent="7baba1c4bc27f4b0-2">
          <mxGeometry x="80" y="600" width="60" height="20" as="geometry" />
        </mxCell>
        <mxCell id="AwvMzt33uURzhuPgtbTJ-111" value="" style="html=1;points=[];perimeter=orthogonalPerimeter;rounded=0;shadow=0;comic=0;labelBackgroundColor=none;strokeWidth=1;fontFamily=Verdana;fontSize=12;align=center;" vertex="1" parent="7baba1c4bc27f4b0-2">
          <mxGeometry x="80" y="630" width="10" height="30" as="geometry" />
        </mxCell>
        <mxCell id="AwvMzt33uURzhuPgtbTJ-113" value="SPB測試" style="text;html=1;align=center;verticalAlign=middle;resizable=0;points=[];autosize=1;strokeColor=none;fillColor=none;" vertex="1" parent="7baba1c4bc27f4b0-2">
          <mxGeometry x="80" y="640" width="60" height="20" as="geometry" />
        </mxCell>
        <mxCell id="AwvMzt33uURzhuPgtbTJ-138" value="結果回傳" style="text;html=1;align=center;verticalAlign=middle;resizable=0;points=[];autosize=1;strokeColor=none;fillColor=none;" vertex="1" parent="7baba1c4bc27f4b0-2">
          <mxGeometry x="90" y="810" width="60" height="20" as="geometry" />
        </mxCell>
        <mxCell id="AwvMzt33uURzhuPgtbTJ-139" value="" style="html=1;points=[];perimeter=orthogonalPerimeter;rounded=0;shadow=0;comic=0;labelBackgroundColor=none;strokeWidth=1;fontFamily=Verdana;fontSize=12;align=center;" vertex="1" parent="7baba1c4bc27f4b0-2">
          <mxGeometry x="80" y="840" width="10" height="30" as="geometry" />
        </mxCell>
        <mxCell id="AwvMzt33uURzhuPgtbTJ-167" value="結果回傳" style="text;html=1;align=center;verticalAlign=middle;resizable=0;points=[];autosize=1;strokeColor=none;fillColor=none;" vertex="1" parent="7baba1c4bc27f4b0-2">
          <mxGeometry x="90" y="1020" width="60" height="20" as="geometry" />
        </mxCell>
        <mxCell id="AwvMzt33uURzhuPgtbTJ-168" value="" style="html=1;points=[];perimeter=orthogonalPerimeter;rounded=0;shadow=0;comic=0;labelBackgroundColor=none;strokeWidth=1;fontFamily=Verdana;fontSize=12;align=center;" vertex="1" parent="7baba1c4bc27f4b0-2">
          <mxGeometry x="80" y="1050" width="10" height="30" as="geometry" />
        </mxCell>
        <mxCell id="AwvMzt33uURzhuPgtbTJ-193" value="檢查fail" style="text;html=1;align=center;verticalAlign=middle;resizable=0;points=[];autosize=1;strokeColor=none;fillColor=none;" vertex="1" parent="7baba1c4bc27f4b0-2">
          <mxGeometry x="130" y="1175" width="50" height="20" as="geometry" />
        </mxCell>
        <mxCell id="AwvMzt33uURzhuPgtbTJ-169" value="復位" style="text;html=1;align=center;verticalAlign=middle;resizable=0;points=[];autosize=1;strokeColor=none;fillColor=none;" vertex="1" parent="7baba1c4bc27f4b0-2">
          <mxGeometry x="90" y="1060" width="40" height="20" as="geometry" />
        </mxCell>
        <mxCell id="AwvMzt33uURzhuPgtbTJ-199" value="復位OK" style="text;html=1;align=center;verticalAlign=middle;resizable=0;points=[];autosize=1;strokeColor=none;fillColor=none;" vertex="1" parent="7baba1c4bc27f4b0-2">
          <mxGeometry x="110" y="1260" width="60" height="20" as="geometry" />
        </mxCell>
        <mxCell id="AwvMzt33uURzhuPgtbTJ-201" value="測試完成，數據處理" style="html=1;points=[];perimeter=orthogonalPerimeter;rounded=0;shadow=0;comic=0;labelBackgroundColor=none;strokeWidth=1;fontFamily=Verdana;fontSize=12;align=center;" vertex="1" parent="7baba1c4bc27f4b0-2">
          <mxGeometry x="80" y="1280" width="10" height="70" as="geometry" />
        </mxCell>
        <mxCell id="AwvMzt33uURzhuPgtbTJ-202" value="" style="endArrow=classic;html=1;rounded=0;" edge="1" parent="7baba1c4bc27f4b0-2" target="7baba1c4bc27f4b0-8">
          <mxGeometry width="50" height="50" relative="1" as="geometry">
            <mxPoint x="85" y="1350" as="sourcePoint" />
            <mxPoint x="135" y="1300" as="targetPoint" />
          </mxGeometry>
        </mxCell>
        <mxCell id="7baba1c4bc27f4b0-3" value="测试test.dll" style="shape=umlLifeline;perimeter=lifelinePerimeter;whiteSpace=wrap;html=1;container=1;collapsible=0;recursiveResize=0;outlineConnect=0;rounded=1;shadow=0;comic=0;labelBackgroundColor=none;strokeWidth=1;fontFamily=Verdana;fontSize=12;align=center;" parent="1" vertex="1">
          <mxGeometry x="400" y="80" width="100" height="1440" as="geometry" />
        </mxCell>
        <mxCell id="AwvMzt33uURzhuPgtbTJ-18" value="" style="html=1;points=[];perimeter=orthogonalPerimeter;rounded=0;shadow=0;comic=0;labelBackgroundColor=none;strokeWidth=1;fontFamily=Verdana;fontSize=12;align=center;" vertex="1" parent="7baba1c4bc27f4b0-3">
          <mxGeometry x="45" y="230" width="10" height="10" as="geometry" />
        </mxCell>
        <mxCell id="AwvMzt33uURzhuPgtbTJ-22" value="" style="endArrow=classic;html=1;rounded=0;" edge="1" parent="7baba1c4bc27f4b0-3" target="7baba1c4bc27f4b0-4">
          <mxGeometry width="50" height="50" relative="1" as="geometry">
            <mxPoint x="50" y="240" as="sourcePoint" />
            <mxPoint x="100" y="190" as="targetPoint" />
          </mxGeometry>
        </mxCell>
        <mxCell id="AwvMzt33uURzhuPgtbTJ-45" value="" style="html=1;points=[];perimeter=orthogonalPerimeter;rounded=0;shadow=0;comic=0;labelBackgroundColor=none;strokeWidth=1;fontFamily=Verdana;fontSize=12;align=center;" vertex="1" parent="7baba1c4bc27f4b0-3">
          <mxGeometry x="45" y="250" width="10" height="40" as="geometry" />
        </mxCell>
        <mxCell id="AwvMzt33uURzhuPgtbTJ-46" value="" style="html=1;points=[];perimeter=orthogonalPerimeter;rounded=0;shadow=0;comic=0;labelBackgroundColor=none;strokeWidth=1;fontFamily=Verdana;fontSize=12;align=center;" vertex="1" parent="7baba1c4bc27f4b0-3">
          <mxGeometry x="45" y="300" width="10" height="40" as="geometry" />
        </mxCell>
        <mxCell id="AwvMzt33uURzhuPgtbTJ-47" value="" style="html=1;points=[];perimeter=orthogonalPerimeter;rounded=0;shadow=0;comic=0;labelBackgroundColor=none;strokeWidth=1;fontFamily=Verdana;fontSize=12;align=center;" vertex="1" parent="7baba1c4bc27f4b0-3">
          <mxGeometry x="45" y="345" width="10" height="40" as="geometry" />
        </mxCell>
        <mxCell id="AwvMzt33uURzhuPgtbTJ-52" value="" style="html=1;points=[];perimeter=orthogonalPerimeter;rounded=0;shadow=0;comic=0;labelBackgroundColor=none;strokeWidth=1;fontFamily=Verdana;fontSize=12;align=center;" vertex="1" parent="7baba1c4bc27f4b0-3">
          <mxGeometry x="45" y="400" width="10" height="40" as="geometry" />
        </mxCell>
        <mxCell id="AwvMzt33uURzhuPgtbTJ-53" value="" style="endArrow=classic;html=1;rounded=0;entryX=0.4;entryY=0.025;entryDx=0;entryDy=0;entryPerimeter=0;" edge="1" parent="7baba1c4bc27f4b0-3" target="AwvMzt33uURzhuPgtbTJ-52">
          <mxGeometry width="50" height="50" relative="1" as="geometry">
            <mxPoint x="50" y="385" as="sourcePoint" />
            <mxPoint x="100" y="335" as="targetPoint" />
          </mxGeometry>
        </mxCell>
        <mxCell id="AwvMzt33uURzhuPgtbTJ-55" value="遠焦測試" style="text;html=1;align=center;verticalAlign=middle;resizable=0;points=[];autosize=1;strokeColor=none;fillColor=none;" vertex="1" parent="7baba1c4bc27f4b0-3">
          <mxGeometry x="20" y="410" width="60" height="20" as="geometry" />
        </mxCell>
        <mxCell id="AwvMzt33uURzhuPgtbTJ-86" value="" style="html=1;points=[];perimeter=orthogonalPerimeter;rounded=0;shadow=0;comic=0;labelBackgroundColor=none;strokeWidth=1;fontFamily=Verdana;fontSize=12;align=center;" vertex="1" parent="7baba1c4bc27f4b0-3">
          <mxGeometry x="45" y="470" width="10" height="10" as="geometry" />
        </mxCell>
        <mxCell id="AwvMzt33uURzhuPgtbTJ-93" value="" style="html=1;points=[];perimeter=orthogonalPerimeter;rounded=0;shadow=0;comic=0;labelBackgroundColor=none;strokeWidth=1;fontFamily=Verdana;fontSize=12;align=center;" vertex="1" parent="7baba1c4bc27f4b0-3">
          <mxGeometry x="45" y="490" width="10" height="30" as="geometry" />
        </mxCell>
        <mxCell id="AwvMzt33uURzhuPgtbTJ-98" value="" style="html=1;points=[];perimeter=orthogonalPerimeter;rounded=0;shadow=0;comic=0;labelBackgroundColor=none;strokeWidth=1;fontFamily=Verdana;fontSize=12;align=center;" vertex="1" parent="7baba1c4bc27f4b0-3">
          <mxGeometry x="45" y="530" width="10" height="40" as="geometry" />
        </mxCell>
        <mxCell id="AwvMzt33uURzhuPgtbTJ-99" value="檢查狀態碼" style="text;html=1;align=center;verticalAlign=middle;resizable=0;points=[];autosize=1;strokeColor=none;fillColor=none;" vertex="1" parent="7baba1c4bc27f4b0-3">
          <mxGeometry x="-30" y="540" width="80" height="20" as="geometry" />
        </mxCell>
        <mxCell id="AwvMzt33uURzhuPgtbTJ-100" value="" style="edgeStyle=orthogonalEdgeStyle;rounded=0;orthogonalLoop=1;jettySize=auto;html=1;" edge="1" parent="7baba1c4bc27f4b0-3">
          <mxGeometry relative="1" as="geometry">
            <mxPoint x="10" y="540" as="sourcePoint" />
            <mxPoint x="45" y="505" as="targetPoint" />
            <Array as="points">
              <mxPoint x="10" y="505" />
            </Array>
          </mxGeometry>
        </mxCell>
        <mxCell id="AwvMzt33uURzhuPgtbTJ-106" value="近焦測試" style="html=1;points=[];perimeter=orthogonalPerimeter;rounded=0;shadow=0;comic=0;labelBackgroundColor=none;strokeWidth=1;fontFamily=Verdana;fontSize=12;align=center;" vertex="1" parent="7baba1c4bc27f4b0-3">
          <mxGeometry x="45" y="590" width="10" height="40" as="geometry" />
        </mxCell>
        <mxCell id="AwvMzt33uURzhuPgtbTJ-107" value="" style="endArrow=classic;html=1;rounded=0;exitX=0.2;exitY=0.975;exitDx=0;exitDy=0;exitPerimeter=0;entryX=0.7;entryY=-0.033;entryDx=0;entryDy=0;entryPerimeter=0;" edge="1" parent="7baba1c4bc27f4b0-3" target="AwvMzt33uURzhuPgtbTJ-111">
          <mxGeometry width="50" height="50" relative="1" as="geometry">
            <mxPoint x="50" y="630" as="sourcePoint" />
            <mxPoint x="-80" y="630" as="targetPoint" />
          </mxGeometry>
        </mxCell>
        <mxCell id="AwvMzt33uURzhuPgtbTJ-112" value="" style="endArrow=classic;html=1;rounded=0;exitX=0.167;exitY=1.1;exitDx=0;exitDy=0;exitPerimeter=0;" edge="1" parent="7baba1c4bc27f4b0-3" source="AwvMzt33uURzhuPgtbTJ-113">
          <mxGeometry width="50" height="50" relative="1" as="geometry">
            <mxPoint x="-70" y="660" as="sourcePoint" />
            <mxPoint x="50" y="660" as="targetPoint" />
          </mxGeometry>
        </mxCell>
        <mxCell id="AwvMzt33uURzhuPgtbTJ-115" value="" style="html=1;points=[];perimeter=orthogonalPerimeter;rounded=0;shadow=0;comic=0;labelBackgroundColor=none;strokeWidth=1;fontFamily=Verdana;fontSize=12;align=center;" vertex="1" parent="7baba1c4bc27f4b0-3">
          <mxGeometry x="45" y="660" width="10" height="10" as="geometry" />
        </mxCell>
        <mxCell id="AwvMzt33uURzhuPgtbTJ-122" value="" style="html=1;points=[];perimeter=orthogonalPerimeter;rounded=0;shadow=0;comic=0;labelBackgroundColor=none;strokeWidth=1;fontFamily=Verdana;fontSize=12;align=center;" vertex="1" parent="7baba1c4bc27f4b0-3">
          <mxGeometry x="45" y="680" width="10" height="40" as="geometry" />
        </mxCell>
        <mxCell id="AwvMzt33uURzhuPgtbTJ-128" value="" style="html=1;points=[];perimeter=orthogonalPerimeter;rounded=0;shadow=0;comic=0;labelBackgroundColor=none;strokeWidth=1;fontFamily=Verdana;fontSize=12;align=center;" vertex="1" parent="7baba1c4bc27f4b0-3">
          <mxGeometry x="45" y="730" width="10" height="40" as="geometry" />
        </mxCell>
        <mxCell id="AwvMzt33uURzhuPgtbTJ-129" value="檢查狀態碼" style="text;html=1;align=center;verticalAlign=middle;resizable=0;points=[];autosize=1;strokeColor=none;fillColor=none;" vertex="1" parent="7baba1c4bc27f4b0-3">
          <mxGeometry x="-25" y="740" width="80" height="20" as="geometry" />
        </mxCell>
        <mxCell id="AwvMzt33uURzhuPgtbTJ-130" value="" style="edgeStyle=orthogonalEdgeStyle;rounded=0;orthogonalLoop=1;jettySize=auto;html=1;" edge="1" parent="7baba1c4bc27f4b0-3">
          <mxGeometry relative="1" as="geometry">
            <mxPoint x="10" y="740" as="sourcePoint" />
            <mxPoint x="45" y="705" as="targetPoint" />
            <Array as="points">
              <mxPoint x="10" y="705" />
            </Array>
          </mxGeometry>
        </mxCell>
        <mxCell id="AwvMzt33uURzhuPgtbTJ-136" value="SPB測試" style="html=1;points=[];perimeter=orthogonalPerimeter;rounded=0;shadow=0;comic=0;labelBackgroundColor=none;strokeWidth=1;fontFamily=Verdana;fontSize=12;align=center;" vertex="1" parent="7baba1c4bc27f4b0-3">
          <mxGeometry x="45" y="800" width="10" height="40" as="geometry" />
        </mxCell>
        <mxCell id="AwvMzt33uURzhuPgtbTJ-137" value="" style="endArrow=classic;html=1;rounded=0;exitX=0.2;exitY=0.975;exitDx=0;exitDy=0;exitPerimeter=0;entryX=0.9;entryY=0;entryDx=0;entryDy=0;entryPerimeter=0;" edge="1" parent="7baba1c4bc27f4b0-3" target="AwvMzt33uURzhuPgtbTJ-139">
          <mxGeometry width="50" height="50" relative="1" as="geometry">
            <mxPoint x="50" y="840" as="sourcePoint" />
            <mxPoint x="-80" y="840" as="targetPoint" />
          </mxGeometry>
        </mxCell>
        <mxCell id="AwvMzt33uURzhuPgtbTJ-142" value="" style="html=1;points=[];perimeter=orthogonalPerimeter;rounded=0;shadow=0;comic=0;labelBackgroundColor=none;strokeWidth=1;fontFamily=Verdana;fontSize=12;align=center;" vertex="1" parent="7baba1c4bc27f4b0-3">
          <mxGeometry x="45" y="870" width="10" height="10" as="geometry" />
        </mxCell>
        <mxCell id="AwvMzt33uURzhuPgtbTJ-103" value="檢查pass" style="text;html=1;align=center;verticalAlign=middle;resizable=0;points=[];autosize=1;strokeColor=none;fillColor=none;" vertex="1" parent="7baba1c4bc27f4b0-3">
          <mxGeometry x="20" y="570" width="60" height="20" as="geometry" />
        </mxCell>
        <mxCell id="AwvMzt33uURzhuPgtbTJ-54" value="檢查pass" style="text;html=1;align=center;verticalAlign=middle;resizable=0;points=[];autosize=1;strokeColor=none;fillColor=none;" vertex="1" parent="7baba1c4bc27f4b0-3">
          <mxGeometry x="20" y="385" width="60" height="20" as="geometry" />
        </mxCell>
        <mxCell id="AwvMzt33uURzhuPgtbTJ-151" value="" style="html=1;points=[];perimeter=orthogonalPerimeter;rounded=0;shadow=0;comic=0;labelBackgroundColor=none;strokeWidth=1;fontFamily=Verdana;fontSize=12;align=center;" vertex="1" parent="7baba1c4bc27f4b0-3">
          <mxGeometry x="45" y="890" width="10" height="40" as="geometry" />
        </mxCell>
        <mxCell id="AwvMzt33uURzhuPgtbTJ-152" value="檢查狀態碼" style="text;html=1;align=center;verticalAlign=middle;resizable=0;points=[];autosize=1;strokeColor=none;fillColor=none;" vertex="1" parent="7baba1c4bc27f4b0-3">
          <mxGeometry x="-35" y="950" width="80" height="20" as="geometry" />
        </mxCell>
        <mxCell id="AwvMzt33uURzhuPgtbTJ-154" value="" style="endArrow=classic;html=1;rounded=0;" edge="1" parent="7baba1c4bc27f4b0-3">
          <mxGeometry width="50" height="50" relative="1" as="geometry">
            <mxPoint x="50" y="930" as="sourcePoint" />
            <mxPoint x="204.5" y="930" as="targetPoint" />
          </mxGeometry>
        </mxCell>
        <mxCell id="AwvMzt33uURzhuPgtbTJ-162" value="" style="edgeStyle=orthogonalEdgeStyle;rounded=0;orthogonalLoop=1;jettySize=auto;html=1;" edge="1" parent="7baba1c4bc27f4b0-3" source="AwvMzt33uURzhuPgtbTJ-158" target="AwvMzt33uURzhuPgtbTJ-161">
          <mxGeometry relative="1" as="geometry" />
        </mxCell>
        <mxCell id="AwvMzt33uURzhuPgtbTJ-158" value="" style="html=1;points=[];perimeter=orthogonalPerimeter;rounded=0;shadow=0;comic=0;labelBackgroundColor=none;strokeWidth=1;fontFamily=Verdana;fontSize=12;align=center;" vertex="1" parent="7baba1c4bc27f4b0-3">
          <mxGeometry x="45" y="940" width="10" height="40" as="geometry" />
        </mxCell>
        <mxCell id="AwvMzt33uURzhuPgtbTJ-159" value="" style="edgeStyle=orthogonalEdgeStyle;rounded=0;orthogonalLoop=1;jettySize=auto;html=1;" edge="1" parent="7baba1c4bc27f4b0-3">
          <mxGeometry relative="1" as="geometry">
            <mxPoint x="10" y="950" as="sourcePoint" />
            <mxPoint x="45" y="915" as="targetPoint" />
            <Array as="points">
              <mxPoint x="10" y="915" />
            </Array>
          </mxGeometry>
        </mxCell>
        <mxCell id="AwvMzt33uURzhuPgtbTJ-161" value="暗板測試" style="html=1;points=[];perimeter=orthogonalPerimeter;rounded=0;shadow=0;comic=0;labelBackgroundColor=none;strokeWidth=1;fontFamily=Verdana;fontSize=12;align=center;" vertex="1" parent="7baba1c4bc27f4b0-3">
          <mxGeometry x="45" y="1010" width="10" height="40" as="geometry" />
        </mxCell>
        <mxCell id="AwvMzt33uURzhuPgtbTJ-163" value="檢查pass" style="text;html=1;align=center;verticalAlign=middle;resizable=0;points=[];autosize=1;strokeColor=none;fillColor=none;" vertex="1" parent="7baba1c4bc27f4b0-3">
          <mxGeometry x="20" y="980" width="60" height="20" as="geometry" />
        </mxCell>
        <mxCell id="AwvMzt33uURzhuPgtbTJ-166" value="" style="endArrow=classic;html=1;rounded=0;exitX=0.2;exitY=0.975;exitDx=0;exitDy=0;exitPerimeter=0;entryX=0.7;entryY=0;entryDx=0;entryDy=0;entryPerimeter=0;" edge="1" parent="7baba1c4bc27f4b0-3" target="AwvMzt33uURzhuPgtbTJ-168">
          <mxGeometry width="50" height="50" relative="1" as="geometry">
            <mxPoint x="50" y="1050" as="sourcePoint" />
            <mxPoint x="-80" y="1050" as="targetPoint" />
          </mxGeometry>
        </mxCell>
        <mxCell id="AwvMzt33uURzhuPgtbTJ-170" value="" style="endArrow=classic;html=1;rounded=0;exitX=-0.1;exitY=1.1;exitDx=0;exitDy=0;exitPerimeter=0;" edge="1" parent="7baba1c4bc27f4b0-3" source="AwvMzt33uURzhuPgtbTJ-169">
          <mxGeometry width="50" height="50" relative="1" as="geometry">
            <mxPoint x="-80" y="1080" as="sourcePoint" />
            <mxPoint x="50" y="1080" as="targetPoint" />
          </mxGeometry>
        </mxCell>
        <mxCell id="AwvMzt33uURzhuPgtbTJ-171" value="" style="html=1;points=[];perimeter=orthogonalPerimeter;rounded=0;shadow=0;comic=0;labelBackgroundColor=none;strokeWidth=1;fontFamily=Verdana;fontSize=12;align=center;" vertex="1" parent="7baba1c4bc27f4b0-3">
          <mxGeometry x="45" y="1080" width="10" height="10" as="geometry" />
        </mxCell>
        <mxCell id="AwvMzt33uURzhuPgtbTJ-178" value="" style="html=1;points=[];perimeter=orthogonalPerimeter;rounded=0;shadow=0;comic=0;labelBackgroundColor=none;strokeWidth=1;fontFamily=Verdana;fontSize=12;align=center;" vertex="1" parent="7baba1c4bc27f4b0-3">
          <mxGeometry x="45" y="1100" width="10" height="40" as="geometry" />
        </mxCell>
        <mxCell id="AwvMzt33uURzhuPgtbTJ-179" value="" style="endArrow=classic;html=1;rounded=0;" edge="1" parent="7baba1c4bc27f4b0-3">
          <mxGeometry width="50" height="50" relative="1" as="geometry">
            <mxPoint x="50" y="1140" as="sourcePoint" />
            <mxPoint x="204.5" y="1140" as="targetPoint" />
          </mxGeometry>
        </mxCell>
        <mxCell id="AwvMzt33uURzhuPgtbTJ-184" value="" style="html=1;points=[];perimeter=orthogonalPerimeter;rounded=0;shadow=0;comic=0;labelBackgroundColor=none;strokeWidth=1;fontFamily=Verdana;fontSize=12;align=center;" vertex="1" parent="7baba1c4bc27f4b0-3">
          <mxGeometry x="45" y="1150" width="10" height="40" as="geometry" />
        </mxCell>
        <mxCell id="AwvMzt33uURzhuPgtbTJ-190" value="" style="html=1;points=[];perimeter=orthogonalPerimeter;rounded=0;shadow=0;comic=0;labelBackgroundColor=none;strokeWidth=1;fontFamily=Verdana;fontSize=12;align=center;" vertex="1" parent="7baba1c4bc27f4b0-3">
          <mxGeometry x="45" y="1200" width="10" height="40" as="geometry" />
        </mxCell>
        <mxCell id="AwvMzt33uURzhuPgtbTJ-191" value="檢查狀態碼" style="text;html=1;align=center;verticalAlign=middle;resizable=0;points=[];autosize=1;strokeColor=none;fillColor=none;" vertex="1" parent="7baba1c4bc27f4b0-3">
          <mxGeometry x="-35" y="1210" width="80" height="20" as="geometry" />
        </mxCell>
        <mxCell id="AwvMzt33uURzhuPgtbTJ-192" value="" style="edgeStyle=orthogonalEdgeStyle;rounded=0;orthogonalLoop=1;jettySize=auto;html=1;" edge="1" parent="7baba1c4bc27f4b0-3">
          <mxGeometry relative="1" as="geometry">
            <mxPoint x="10" y="1210" as="sourcePoint" />
            <mxPoint x="45" y="1175" as="targetPoint" />
            <Array as="points">
              <mxPoint x="10" y="1175" />
            </Array>
          </mxGeometry>
        </mxCell>
        <mxCell id="AwvMzt33uURzhuPgtbTJ-194" value="" style="html=1;points=[];perimeter=orthogonalPerimeter;rounded=0;shadow=0;comic=0;labelBackgroundColor=none;strokeWidth=1;fontFamily=Verdana;fontSize=12;align=center;" vertex="1" parent="7baba1c4bc27f4b0-3">
          <mxGeometry x="45" y="1260" width="10" height="20" as="geometry" />
        </mxCell>
        <mxCell id="AwvMzt33uURzhuPgtbTJ-195" value="" style="edgeStyle=orthogonalEdgeStyle;rounded=0;orthogonalLoop=1;jettySize=auto;html=1;" edge="1" parent="7baba1c4bc27f4b0-3" source="AwvMzt33uURzhuPgtbTJ-190" target="AwvMzt33uURzhuPgtbTJ-194">
          <mxGeometry relative="1" as="geometry" />
        </mxCell>
        <mxCell id="AwvMzt33uURzhuPgtbTJ-196" value="檢查pass" style="text;html=1;align=center;verticalAlign=middle;resizable=0;points=[];autosize=1;strokeColor=none;fillColor=none;" vertex="1" parent="7baba1c4bc27f4b0-3">
          <mxGeometry x="20" y="1240" width="60" height="20" as="geometry" />
        </mxCell>
        <mxCell id="AwvMzt33uURzhuPgtbTJ-197" value="" style="endArrow=classic;html=1;rounded=0;" edge="1" parent="7baba1c4bc27f4b0-3" target="7baba1c4bc27f4b0-2">
          <mxGeometry width="50" height="50" relative="1" as="geometry">
            <mxPoint x="50" y="1280" as="sourcePoint" />
            <mxPoint x="100" y="1230" as="targetPoint" />
          </mxGeometry>
        </mxCell>
        <mxCell id="7baba1c4bc27f4b0-4" value="plc" style="shape=umlLifeline;perimeter=lifelinePerimeter;whiteSpace=wrap;html=1;container=1;collapsible=0;recursiveResize=0;outlineConnect=0;rounded=1;shadow=0;comic=0;labelBackgroundColor=none;strokeWidth=1;fontFamily=Verdana;fontSize=12;align=center;" parent="1" vertex="1">
          <mxGeometry x="540" y="80" width="140" height="1440" as="geometry" />
        </mxCell>
        <mxCell id="AwvMzt33uURzhuPgtbTJ-8" value="" style="html=1;points=[];perimeter=orthogonalPerimeter;rounded=0;shadow=0;comic=0;labelBackgroundColor=none;strokeWidth=1;fontFamily=Verdana;fontSize=12;align=center;" vertex="1" parent="7baba1c4bc27f4b0-4">
          <mxGeometry x="60" y="140" width="10" height="30" as="geometry" />
        </mxCell>
        <mxCell id="AwvMzt33uURzhuPgtbTJ-9" value="生成SN文檔" style="text;html=1;align=center;verticalAlign=middle;resizable=0;points=[];autosize=1;strokeColor=none;fillColor=none;" vertex="1" parent="7baba1c4bc27f4b0-4">
          <mxGeometry x="80" y="140" width="80" height="20" as="geometry" />
        </mxCell>
        <mxCell id="AwvMzt33uURzhuPgtbTJ-10" value="" style="endArrow=classic;html=1;rounded=0;" edge="1" parent="7baba1c4bc27f4b0-4" target="7baba1c4bc27f4b0-8">
          <mxGeometry width="50" height="50" relative="1" as="geometry">
            <mxPoint x="70" y="170" as="sourcePoint" />
            <mxPoint x="120" y="120" as="targetPoint" />
          </mxGeometry>
        </mxCell>
        <mxCell id="AwvMzt33uURzhuPgtbTJ-23" value="" style="html=1;points=[];perimeter=orthogonalPerimeter;rounded=0;shadow=0;comic=0;labelBackgroundColor=none;strokeWidth=1;fontFamily=Verdana;fontSize=12;align=center;" vertex="1" parent="7baba1c4bc27f4b0-4">
          <mxGeometry x="60" y="240" width="10" height="10" as="geometry" />
        </mxCell>
        <mxCell id="AwvMzt33uURzhuPgtbTJ-27" value="" style="endArrow=classic;html=1;rounded=0;" edge="1" parent="7baba1c4bc27f4b0-4" target="7baba1c4bc27f4b0-3">
          <mxGeometry width="50" height="50" relative="1" as="geometry">
            <mxPoint x="60" y="250" as="sourcePoint" />
            <mxPoint x="110" y="200" as="targetPoint" />
          </mxGeometry>
        </mxCell>
        <mxCell id="AwvMzt33uURzhuPgtbTJ-29" value="" style="html=1;points=[];perimeter=orthogonalPerimeter;rounded=0;shadow=0;comic=0;labelBackgroundColor=none;strokeWidth=1;fontFamily=Verdana;fontSize=12;align=center;" vertex="1" parent="7baba1c4bc27f4b0-4">
          <mxGeometry x="60" y="290" width="10" height="10" as="geometry" />
        </mxCell>
        <mxCell id="AwvMzt33uURzhuPgtbTJ-30" value="" style="endArrow=classic;html=1;rounded=0;" edge="1" parent="7baba1c4bc27f4b0-4">
          <mxGeometry width="50" height="50" relative="1" as="geometry">
            <mxPoint x="60" y="300" as="sourcePoint" />
            <mxPoint x="-90.5" y="300" as="targetPoint" />
          </mxGeometry>
        </mxCell>
        <mxCell id="AwvMzt33uURzhuPgtbTJ-26" value="" style="endArrow=classic;html=1;rounded=0;" edge="1" parent="7baba1c4bc27f4b0-4">
          <mxGeometry width="50" height="50" relative="1" as="geometry">
            <mxPoint x="-84.5" y="290" as="sourcePoint" />
            <mxPoint x="70" y="290" as="targetPoint" />
          </mxGeometry>
        </mxCell>
        <mxCell id="AwvMzt33uURzhuPgtbTJ-24" value="動作：中焦+透鏡" style="text;html=1;align=center;verticalAlign=middle;resizable=0;points=[];autosize=1;strokeColor=none;fillColor=none;" vertex="1" parent="7baba1c4bc27f4b0-4">
          <mxGeometry x="-70" y="270" width="110" height="20" as="geometry" />
        </mxCell>
        <mxCell id="AwvMzt33uURzhuPgtbTJ-42" value="" style="html=1;points=[];perimeter=orthogonalPerimeter;rounded=0;shadow=0;comic=0;labelBackgroundColor=none;strokeWidth=1;fontFamily=Verdana;fontSize=12;align=center;" vertex="1" parent="7baba1c4bc27f4b0-4">
          <mxGeometry x="60" y="335" width="10" height="10" as="geometry" />
        </mxCell>
        <mxCell id="AwvMzt33uURzhuPgtbTJ-43" value="" style="endArrow=classic;html=1;rounded=0;" edge="1" parent="7baba1c4bc27f4b0-4">
          <mxGeometry width="50" height="50" relative="1" as="geometry">
            <mxPoint x="60.25" y="345" as="sourcePoint" />
            <mxPoint x="-90.25" y="345" as="targetPoint" />
          </mxGeometry>
        </mxCell>
        <mxCell id="AwvMzt33uURzhuPgtbTJ-87" value="" style="endArrow=classic;html=1;rounded=0;" edge="1" parent="7baba1c4bc27f4b0-4">
          <mxGeometry width="50" height="50" relative="1" as="geometry">
            <mxPoint x="-84.5" y="480" as="sourcePoint" />
            <mxPoint x="70" y="480" as="targetPoint" />
          </mxGeometry>
        </mxCell>
        <mxCell id="AwvMzt33uURzhuPgtbTJ-89" value="" style="html=1;points=[];perimeter=orthogonalPerimeter;rounded=0;shadow=0;comic=0;labelBackgroundColor=none;strokeWidth=1;fontFamily=Verdana;fontSize=12;align=center;" vertex="1" parent="7baba1c4bc27f4b0-4">
          <mxGeometry x="60" y="480" width="10" height="10" as="geometry" />
        </mxCell>
        <mxCell id="AwvMzt33uURzhuPgtbTJ-91" value="" style="endArrow=classic;html=1;rounded=0;" edge="1" parent="7baba1c4bc27f4b0-4">
          <mxGeometry width="50" height="50" relative="1" as="geometry">
            <mxPoint x="60.25" y="490" as="sourcePoint" />
            <mxPoint x="-90.25" y="490" as="targetPoint" />
          </mxGeometry>
        </mxCell>
        <mxCell id="AwvMzt33uURzhuPgtbTJ-92" value="plc回傳：06" style="text;html=1;align=center;verticalAlign=middle;resizable=0;points=[];autosize=1;strokeColor=none;fillColor=none;" vertex="1" parent="7baba1c4bc27f4b0-4">
          <mxGeometry x="-60" y="490" width="80" height="20" as="geometry" />
        </mxCell>
        <mxCell id="AwvMzt33uURzhuPgtbTJ-94" value="" style="endArrow=classic;html=1;rounded=0;" edge="1" parent="7baba1c4bc27f4b0-4">
          <mxGeometry width="50" height="50" relative="1" as="geometry">
            <mxPoint x="-92.25" y="520" as="sourcePoint" />
            <mxPoint x="62.25" y="520" as="targetPoint" />
          </mxGeometry>
        </mxCell>
        <mxCell id="AwvMzt33uURzhuPgtbTJ-95" value="" style="html=1;points=[];perimeter=orthogonalPerimeter;rounded=0;shadow=0;comic=0;labelBackgroundColor=none;strokeWidth=1;fontFamily=Verdana;fontSize=12;align=center;" vertex="1" parent="7baba1c4bc27f4b0-4">
          <mxGeometry x="60" y="520" width="10" height="10" as="geometry" />
        </mxCell>
        <mxCell id="AwvMzt33uURzhuPgtbTJ-96" value="" style="endArrow=classic;html=1;rounded=0;" edge="1" parent="7baba1c4bc27f4b0-4">
          <mxGeometry width="50" height="50" relative="1" as="geometry">
            <mxPoint x="60.25" y="529" as="sourcePoint" />
            <mxPoint x="-90.25" y="529" as="targetPoint" />
          </mxGeometry>
        </mxCell>
        <mxCell id="AwvMzt33uURzhuPgtbTJ-116" value="" style="endArrow=classic;html=1;rounded=0;" edge="1" parent="7baba1c4bc27f4b0-4">
          <mxGeometry width="50" height="50" relative="1" as="geometry">
            <mxPoint x="-92.25" y="670" as="sourcePoint" />
            <mxPoint x="62.25" y="670" as="targetPoint" />
          </mxGeometry>
        </mxCell>
        <mxCell id="AwvMzt33uURzhuPgtbTJ-118" value="動作：SPB" style="text;html=1;align=center;verticalAlign=middle;resizable=0;points=[];autosize=1;strokeColor=none;fillColor=none;" vertex="1" parent="7baba1c4bc27f4b0-4">
          <mxGeometry x="-60" y="650" width="80" height="20" as="geometry" />
        </mxCell>
        <mxCell id="AwvMzt33uURzhuPgtbTJ-120" value="" style="html=1;points=[];perimeter=orthogonalPerimeter;rounded=0;shadow=0;comic=0;labelBackgroundColor=none;strokeWidth=1;fontFamily=Verdana;fontSize=12;align=center;" vertex="1" parent="7baba1c4bc27f4b0-4">
          <mxGeometry x="60" y="670" width="10" height="10" as="geometry" />
        </mxCell>
        <mxCell id="AwvMzt33uURzhuPgtbTJ-121" value="plc回傳：06" style="text;html=1;align=center;verticalAlign=middle;resizable=0;points=[];autosize=1;strokeColor=none;fillColor=none;" vertex="1" parent="7baba1c4bc27f4b0-4">
          <mxGeometry x="-60" y="680" width="80" height="20" as="geometry" />
        </mxCell>
        <mxCell id="AwvMzt33uURzhuPgtbTJ-124" value="" style="endArrow=classic;html=1;rounded=0;" edge="1" parent="7baba1c4bc27f4b0-4">
          <mxGeometry width="50" height="50" relative="1" as="geometry">
            <mxPoint x="-92.25" y="720" as="sourcePoint" />
            <mxPoint x="62.25" y="720" as="targetPoint" />
          </mxGeometry>
        </mxCell>
        <mxCell id="AwvMzt33uURzhuPgtbTJ-125" value="" style="html=1;points=[];perimeter=orthogonalPerimeter;rounded=0;shadow=0;comic=0;labelBackgroundColor=none;strokeWidth=1;fontFamily=Verdana;fontSize=12;align=center;" vertex="1" parent="7baba1c4bc27f4b0-4">
          <mxGeometry x="60" y="720" width="10" height="10" as="geometry" />
        </mxCell>
        <mxCell id="AwvMzt33uURzhuPgtbTJ-126" value="" style="endArrow=classic;html=1;rounded=0;" edge="1" parent="7baba1c4bc27f4b0-4">
          <mxGeometry width="50" height="50" relative="1" as="geometry">
            <mxPoint x="60.25" y="730" as="sourcePoint" />
            <mxPoint x="-90.25" y="730" as="targetPoint" />
          </mxGeometry>
        </mxCell>
        <mxCell id="AwvMzt33uURzhuPgtbTJ-143" value="" style="endArrow=classic;html=1;rounded=0;" edge="1" parent="7baba1c4bc27f4b0-4">
          <mxGeometry width="50" height="50" relative="1" as="geometry">
            <mxPoint x="-92.25" y="880" as="sourcePoint" />
            <mxPoint x="62.25" y="880" as="targetPoint" />
          </mxGeometry>
        </mxCell>
        <mxCell id="AwvMzt33uURzhuPgtbTJ-145" value="" style="html=1;points=[];perimeter=orthogonalPerimeter;rounded=0;shadow=0;comic=0;labelBackgroundColor=none;strokeWidth=1;fontFamily=Verdana;fontSize=12;align=center;" vertex="1" parent="7baba1c4bc27f4b0-4">
          <mxGeometry x="60" y="880" width="10" height="10" as="geometry" />
        </mxCell>
        <mxCell id="AwvMzt33uURzhuPgtbTJ-146" value="" style="endArrow=classic;html=1;rounded=0;" edge="1" parent="7baba1c4bc27f4b0-4">
          <mxGeometry width="50" height="50" relative="1" as="geometry">
            <mxPoint x="60" y="890" as="sourcePoint" />
            <mxPoint x="-90.5" y="890" as="targetPoint" />
          </mxGeometry>
        </mxCell>
        <mxCell id="AwvMzt33uURzhuPgtbTJ-147" value="plc回傳：06" style="text;html=1;align=center;verticalAlign=middle;resizable=0;points=[];autosize=1;strokeColor=none;fillColor=none;" vertex="1" parent="7baba1c4bc27f4b0-4">
          <mxGeometry x="-60" y="890" width="80" height="20" as="geometry" />
        </mxCell>
        <mxCell id="AwvMzt33uURzhuPgtbTJ-155" value="" style="html=1;points=[];perimeter=orthogonalPerimeter;rounded=0;shadow=0;comic=0;labelBackgroundColor=none;strokeWidth=1;fontFamily=Verdana;fontSize=12;align=center;" vertex="1" parent="7baba1c4bc27f4b0-4">
          <mxGeometry x="60" y="930" width="10" height="10" as="geometry" />
        </mxCell>
        <mxCell id="AwvMzt33uURzhuPgtbTJ-156" value="" style="endArrow=classic;html=1;rounded=0;" edge="1" parent="7baba1c4bc27f4b0-4">
          <mxGeometry width="50" height="50" relative="1" as="geometry">
            <mxPoint x="60.25" y="940" as="sourcePoint" />
            <mxPoint x="-90.25" y="940" as="targetPoint" />
          </mxGeometry>
        </mxCell>
        <mxCell id="AwvMzt33uURzhuPgtbTJ-172" value="" style="endArrow=classic;html=1;rounded=0;" edge="1" parent="7baba1c4bc27f4b0-4">
          <mxGeometry width="50" height="50" relative="1" as="geometry">
            <mxPoint x="-92.25" y="1090" as="sourcePoint" />
            <mxPoint x="62.25" y="1090" as="targetPoint" />
          </mxGeometry>
        </mxCell>
        <mxCell id="AwvMzt33uURzhuPgtbTJ-173" value="動作：全部復位" style="text;html=1;align=center;verticalAlign=middle;resizable=0;points=[];autosize=1;strokeColor=none;fillColor=none;" vertex="1" parent="7baba1c4bc27f4b0-4">
          <mxGeometry x="-70" y="1070" width="100" height="20" as="geometry" />
        </mxCell>
        <mxCell id="AwvMzt33uURzhuPgtbTJ-174" value="" style="html=1;points=[];perimeter=orthogonalPerimeter;rounded=0;shadow=0;comic=0;labelBackgroundColor=none;strokeWidth=1;fontFamily=Verdana;fontSize=12;align=center;" vertex="1" parent="7baba1c4bc27f4b0-4">
          <mxGeometry x="60" y="1090" width="10" height="10" as="geometry" />
        </mxCell>
        <mxCell id="AwvMzt33uURzhuPgtbTJ-176" value="" style="endArrow=classic;html=1;rounded=0;" edge="1" parent="7baba1c4bc27f4b0-4">
          <mxGeometry width="50" height="50" relative="1" as="geometry">
            <mxPoint x="60.25" y="1100" as="sourcePoint" />
            <mxPoint x="-90.25" y="1100" as="targetPoint" />
          </mxGeometry>
        </mxCell>
        <mxCell id="AwvMzt33uURzhuPgtbTJ-181" value="" style="html=1;points=[];perimeter=orthogonalPerimeter;rounded=0;shadow=0;comic=0;labelBackgroundColor=none;strokeWidth=1;fontFamily=Verdana;fontSize=12;align=center;" vertex="1" parent="7baba1c4bc27f4b0-4">
          <mxGeometry x="60" y="1140" width="10" height="10" as="geometry" />
        </mxCell>
        <mxCell id="AwvMzt33uURzhuPgtbTJ-182" value="" style="endArrow=classic;html=1;rounded=0;" edge="1" parent="7baba1c4bc27f4b0-4">
          <mxGeometry width="50" height="50" relative="1" as="geometry">
            <mxPoint x="60.25" y="1150" as="sourcePoint" />
            <mxPoint x="-90.25" y="1150" as="targetPoint" />
          </mxGeometry>
        </mxCell>
        <mxCell id="AwvMzt33uURzhuPgtbTJ-185" value="" style="endArrow=classic;html=1;rounded=0;" edge="1" parent="7baba1c4bc27f4b0-4">
          <mxGeometry width="50" height="50" relative="1" as="geometry">
            <mxPoint x="-92.25" y="1190" as="sourcePoint" />
            <mxPoint x="62.25" y="1190" as="targetPoint" />
          </mxGeometry>
        </mxCell>
        <mxCell id="AwvMzt33uURzhuPgtbTJ-186" value="" style="html=1;points=[];perimeter=orthogonalPerimeter;rounded=0;shadow=0;comic=0;labelBackgroundColor=none;strokeWidth=1;fontFamily=Verdana;fontSize=12;align=center;" vertex="1" parent="7baba1c4bc27f4b0-4">
          <mxGeometry x="60" y="1190" width="10" height="10" as="geometry" />
        </mxCell>
        <mxCell id="AwvMzt33uURzhuPgtbTJ-187" value="" style="endArrow=classic;html=1;rounded=0;" edge="1" parent="7baba1c4bc27f4b0-4">
          <mxGeometry width="50" height="50" relative="1" as="geometry">
            <mxPoint x="60.25" y="1200" as="sourcePoint" />
            <mxPoint x="-90.25" y="1200" as="targetPoint" />
          </mxGeometry>
        </mxCell>
        <mxCell id="7baba1c4bc27f4b0-8" value="主控" style="shape=umlLifeline;perimeter=lifelinePerimeter;whiteSpace=wrap;html=1;container=1;collapsible=0;recursiveResize=0;outlineConnect=0;rounded=1;shadow=0;comic=0;labelBackgroundColor=none;strokeWidth=1;fontFamily=Verdana;fontSize=12;align=center;" parent="1" vertex="1">
          <mxGeometry x="100" y="80" width="100" height="1440" as="geometry" />
        </mxCell>
        <mxCell id="7baba1c4bc27f4b0-9" value="" style="html=1;points=[];perimeter=orthogonalPerimeter;rounded=0;shadow=0;comic=0;labelBackgroundColor=none;strokeWidth=1;fontFamily=Verdana;fontSize=12;align=center;" parent="7baba1c4bc27f4b0-8" vertex="1">
          <mxGeometry x="45" y="100" width="10" height="40" as="geometry" />
        </mxCell>
        <mxCell id="AwvMzt33uURzhuPgtbTJ-1" value="" style="endArrow=classic;html=1;rounded=0;" edge="1" parent="7baba1c4bc27f4b0-8">
          <mxGeometry width="50" height="50" relative="1" as="geometry">
            <mxPoint x="-20" y="100" as="sourcePoint" />
            <mxPoint x="45" y="100" as="targetPoint" />
          </mxGeometry>
        </mxCell>
        <mxCell id="AwvMzt33uURzhuPgtbTJ-5" value="" style="endArrow=classic;html=1;rounded=0;" edge="1" parent="7baba1c4bc27f4b0-8" target="7baba1c4bc27f4b0-4">
          <mxGeometry width="50" height="50" relative="1" as="geometry">
            <mxPoint x="50" y="140" as="sourcePoint" />
            <mxPoint x="100" y="90" as="targetPoint" />
          </mxGeometry>
        </mxCell>
        <mxCell id="AwvMzt33uURzhuPgtbTJ-12" value="" style="html=1;points=[];perimeter=orthogonalPerimeter;rounded=0;shadow=0;comic=0;labelBackgroundColor=none;strokeWidth=1;fontFamily=Verdana;fontSize=12;align=center;" vertex="1" parent="7baba1c4bc27f4b0-8">
          <mxGeometry x="45" y="170" width="10" height="30" as="geometry" />
        </mxCell>
        <mxCell id="AwvMzt33uURzhuPgtbTJ-13" value="GET SN" style="text;html=1;align=center;verticalAlign=middle;resizable=0;points=[];autosize=1;strokeColor=none;fillColor=none;" vertex="1" parent="7baba1c4bc27f4b0-8">
          <mxGeometry x="-20" y="175" width="60" height="20" as="geometry" />
        </mxCell>
        <mxCell id="AwvMzt33uURzhuPgtbTJ-204" value="展示結果" style="html=1;points=[];perimeter=orthogonalPerimeter;rounded=0;shadow=0;comic=0;labelBackgroundColor=none;strokeWidth=1;fontFamily=Verdana;fontSize=12;align=center;" vertex="1" parent="7baba1c4bc27f4b0-8">
          <mxGeometry x="45" y="1350" width="10" height="30" as="geometry" />
        </mxCell>
        <mxCell id="AwvMzt33uURzhuPgtbTJ-208" value="END" style="whiteSpace=wrap;html=1;rounded=0;shadow=0;fontFamily=Verdana;strokeWidth=1;comic=0;" vertex="1" parent="7baba1c4bc27f4b0-8">
          <mxGeometry x="15" y="1425" width="70" height="15" as="geometry" />
        </mxCell>
        <mxCell id="AwvMzt33uURzhuPgtbTJ-209" value="" style="edgeStyle=orthogonalEdgeStyle;rounded=0;orthogonalLoop=1;jettySize=auto;html=1;" edge="1" parent="7baba1c4bc27f4b0-8" source="AwvMzt33uURzhuPgtbTJ-204" target="AwvMzt33uURzhuPgtbTJ-208">
          <mxGeometry relative="1" as="geometry" />
        </mxCell>
        <mxCell id="AwvMzt33uURzhuPgtbTJ-3" value="Actor" style="shape=umlActor;verticalLabelPosition=bottom;verticalAlign=top;html=1;outlineConnect=0;" vertex="1" parent="1">
          <mxGeometry x="40" y="160" width="30" height="60" as="geometry" />
        </mxCell>
        <mxCell id="AwvMzt33uURzhuPgtbTJ-4" value="按下开始" style="text;html=1;align=center;verticalAlign=middle;resizable=0;points=[];autosize=1;strokeColor=none;fillColor=none;" vertex="1" parent="1">
          <mxGeometry x="70" y="160" width="60" height="20" as="geometry" />
        </mxCell>
        <mxCell id="AwvMzt33uURzhuPgtbTJ-6" value="SACN SN" style="text;html=1;align=center;verticalAlign=middle;resizable=0;points=[];autosize=1;strokeColor=none;fillColor=none;" vertex="1" parent="1">
          <mxGeometry x="170" y="190" width="70" height="20" as="geometry" />
        </mxCell>
        <mxCell id="AwvMzt33uURzhuPgtbTJ-11" value="SCAN OK" style="text;html=1;align=center;verticalAlign=middle;resizable=0;points=[];autosize=1;strokeColor=none;fillColor=none;" vertex="1" parent="1">
          <mxGeometry x="170" y="230" width="70" height="20" as="geometry" />
        </mxCell>
        <mxCell id="AwvMzt33uURzhuPgtbTJ-14" value="" style="endArrow=classic;html=1;rounded=0;" edge="1" parent="1" target="7baba1c4bc27f4b0-2">
          <mxGeometry width="50" height="50" relative="1" as="geometry">
            <mxPoint x="150" y="280" as="sourcePoint" />
            <mxPoint x="200" y="230" as="targetPoint" />
          </mxGeometry>
        </mxCell>
        <mxCell id="AwvMzt33uURzhuPgtbTJ-28" value="plc回傳：06" style="text;html=1;align=center;verticalAlign=middle;resizable=0;points=[];autosize=1;strokeColor=none;fillColor=none;" vertex="1" parent="1">
          <mxGeometry x="475" y="330" width="80" height="20" as="geometry" />
        </mxCell>
        <mxCell id="AwvMzt33uURzhuPgtbTJ-31" value="plc回傳：06" style="text;html=1;align=center;verticalAlign=middle;resizable=0;points=[];autosize=1;strokeColor=none;fillColor=none;" vertex="1" parent="1">
          <mxGeometry x="485" y="380" width="80" height="20" as="geometry" />
        </mxCell>
        <mxCell id="AwvMzt33uURzhuPgtbTJ-32" value="動作：料盤" style="text;html=1;align=center;verticalAlign=middle;resizable=0;points=[];autosize=1;strokeColor=none;fillColor=none;" vertex="1" parent="1">
          <mxGeometry x="475" y="300" width="80" height="20" as="geometry" />
        </mxCell>
        <mxCell id="AwvMzt33uURzhuPgtbTJ-40" value="" style="endArrow=classic;html=1;rounded=0;" edge="1" parent="1" target="7baba1c4bc27f4b0-4">
          <mxGeometry width="50" height="50" relative="1" as="geometry">
            <mxPoint x="450" y="415" as="sourcePoint" />
            <mxPoint x="500" y="365" as="targetPoint" />
          </mxGeometry>
        </mxCell>
        <mxCell id="AwvMzt33uURzhuPgtbTJ-41" value="到位檢查" style="text;html=1;align=center;verticalAlign=middle;resizable=0;points=[];autosize=1;strokeColor=none;fillColor=none;" vertex="1" parent="1">
          <mxGeometry x="485" y="400" width="60" height="20" as="geometry" />
        </mxCell>
        <mxCell id="AwvMzt33uURzhuPgtbTJ-44" value="回傳狀態碼" style="text;html=1;align=center;verticalAlign=middle;resizable=0;points=[];autosize=1;strokeColor=none;fillColor=none;" vertex="1" parent="1">
          <mxGeometry x="480" y="430" width="80" height="20" as="geometry" />
        </mxCell>
        <mxCell id="AwvMzt33uURzhuPgtbTJ-50" value="" style="edgeStyle=orthogonalEdgeStyle;rounded=0;orthogonalLoop=1;jettySize=auto;html=1;" edge="1" parent="1" source="AwvMzt33uURzhuPgtbTJ-48" target="AwvMzt33uURzhuPgtbTJ-46">
          <mxGeometry relative="1" as="geometry">
            <Array as="points">
              <mxPoint x="410" y="400" />
            </Array>
          </mxGeometry>
        </mxCell>
        <mxCell id="AwvMzt33uURzhuPgtbTJ-48" value="檢查狀態碼" style="text;html=1;align=center;verticalAlign=middle;resizable=0;points=[];autosize=1;strokeColor=none;fillColor=none;" vertex="1" parent="1">
          <mxGeometry x="370" y="435" width="80" height="20" as="geometry" />
        </mxCell>
        <mxCell id="AwvMzt33uURzhuPgtbTJ-51" value="檢查fail" style="text;html=1;align=center;verticalAlign=middle;resizable=0;points=[];autosize=1;strokeColor=none;fillColor=none;" vertex="1" parent="1">
          <mxGeometry x="365" y="400" width="50" height="20" as="geometry" />
        </mxCell>
        <mxCell id="AwvMzt33uURzhuPgtbTJ-56" value="" style="endArrow=classic;html=1;rounded=0;exitX=0.2;exitY=0.975;exitDx=0;exitDy=0;exitPerimeter=0;" edge="1" parent="1" source="AwvMzt33uURzhuPgtbTJ-52" target="7baba1c4bc27f4b0-2">
          <mxGeometry width="50" height="50" relative="1" as="geometry">
            <mxPoint x="350" y="480" as="sourcePoint" />
            <mxPoint x="400" y="430" as="targetPoint" />
          </mxGeometry>
        </mxCell>
        <mxCell id="AwvMzt33uURzhuPgtbTJ-85" value="" style="endArrow=classic;html=1;rounded=0;exitX=-0.083;exitY=1;exitDx=0;exitDy=0;exitPerimeter=0;" edge="1" parent="1" source="AwvMzt33uURzhuPgtbTJ-84">
          <mxGeometry width="50" height="50" relative="1" as="geometry">
            <mxPoint x="330" y="550" as="sourcePoint" />
            <mxPoint x="450" y="550" as="targetPoint" />
          </mxGeometry>
        </mxCell>
        <mxCell id="AwvMzt33uURzhuPgtbTJ-88" value="動作：近焦" style="text;html=1;align=center;verticalAlign=middle;resizable=0;points=[];autosize=1;strokeColor=none;fillColor=none;" vertex="1" parent="1">
          <mxGeometry x="480" y="540" width="80" height="20" as="geometry" />
        </mxCell>
        <mxCell id="AwvMzt33uURzhuPgtbTJ-97" value="回傳狀態碼" style="text;html=1;align=center;verticalAlign=middle;resizable=0;points=[];autosize=1;strokeColor=none;fillColor=none;" vertex="1" parent="1">
          <mxGeometry x="485" y="610" width="80" height="20" as="geometry" />
        </mxCell>
        <mxCell id="AwvMzt33uURzhuPgtbTJ-101" value="檢查fail" style="text;html=1;align=center;verticalAlign=middle;resizable=0;points=[];autosize=1;strokeColor=none;fillColor=none;" vertex="1" parent="1">
          <mxGeometry x="365" y="590" width="50" height="20" as="geometry" />
        </mxCell>
        <mxCell id="AwvMzt33uURzhuPgtbTJ-104" value="" style="endArrow=classic;html=1;rounded=0;" edge="1" parent="1">
          <mxGeometry width="50" height="50" relative="1" as="geometry">
            <mxPoint x="450" y="660" as="sourcePoint" />
            <mxPoint x="450" y="670" as="targetPoint" />
            <Array as="points" />
          </mxGeometry>
        </mxCell>
        <mxCell id="AwvMzt33uURzhuPgtbTJ-109" value="到位檢查" style="text;html=1;align=center;verticalAlign=middle;resizable=0;points=[];autosize=1;strokeColor=none;fillColor=none;" vertex="1" parent="1">
          <mxGeometry x="495" y="590" width="60" height="20" as="geometry" />
        </mxCell>
        <mxCell id="AwvMzt33uURzhuPgtbTJ-119" value="" style="endArrow=classic;html=1;rounded=0;" edge="1" parent="1">
          <mxGeometry width="50" height="50" relative="1" as="geometry">
            <mxPoint x="600.5" y="760" as="sourcePoint" />
            <mxPoint x="450" y="760" as="targetPoint" />
          </mxGeometry>
        </mxCell>
        <mxCell id="AwvMzt33uURzhuPgtbTJ-123" value="到位檢查" style="text;html=1;align=center;verticalAlign=middle;resizable=0;points=[];autosize=1;strokeColor=none;fillColor=none;" vertex="1" parent="1">
          <mxGeometry x="490" y="780" width="60" height="20" as="geometry" />
        </mxCell>
        <mxCell id="AwvMzt33uURzhuPgtbTJ-127" value="回傳狀態碼" style="text;html=1;align=center;verticalAlign=middle;resizable=0;points=[];autosize=1;strokeColor=none;fillColor=none;" vertex="1" parent="1">
          <mxGeometry x="480" y="810" width="80" height="20" as="geometry" />
        </mxCell>
        <mxCell id="AwvMzt33uURzhuPgtbTJ-131" value="檢查fail" style="text;html=1;align=center;verticalAlign=middle;resizable=0;points=[];autosize=1;strokeColor=none;fillColor=none;" vertex="1" parent="1">
          <mxGeometry x="360" y="790" width="50" height="20" as="geometry" />
        </mxCell>
        <mxCell id="AwvMzt33uURzhuPgtbTJ-140" value="暗板測試" style="text;html=1;align=center;verticalAlign=middle;resizable=0;points=[];autosize=1;strokeColor=none;fillColor=none;" vertex="1" parent="1">
          <mxGeometry x="320" y="930" width="60" height="20" as="geometry" />
        </mxCell>
        <mxCell id="AwvMzt33uURzhuPgtbTJ-141" value="" style="endArrow=classic;html=1;rounded=0;exitX=1;exitY=1.033;exitDx=0;exitDy=0;exitPerimeter=0;" edge="1" parent="1" source="AwvMzt33uURzhuPgtbTJ-139">
          <mxGeometry width="50" height="50" relative="1" as="geometry">
            <mxPoint x="330" y="950" as="sourcePoint" />
            <mxPoint x="450" y="950" as="targetPoint" />
          </mxGeometry>
        </mxCell>
        <mxCell id="AwvMzt33uURzhuPgtbTJ-144" value="動作：暗板" style="text;html=1;align=center;verticalAlign=middle;resizable=0;points=[];autosize=1;strokeColor=none;fillColor=none;" vertex="1" parent="1">
          <mxGeometry x="475" y="940" width="80" height="20" as="geometry" />
        </mxCell>
        <mxCell id="AwvMzt33uURzhuPgtbTJ-148" value="" style="endArrow=classic;html=1;rounded=0;startArrow=none;" edge="1" parent="1" source="AwvMzt33uURzhuPgtbTJ-132">
          <mxGeometry width="50" height="50" relative="1" as="geometry">
            <mxPoint x="450" y="850" as="sourcePoint" />
            <mxPoint x="450" y="880" as="targetPoint" />
          </mxGeometry>
        </mxCell>
        <mxCell id="AwvMzt33uURzhuPgtbTJ-132" value="檢查pass" style="text;html=1;align=center;verticalAlign=middle;resizable=0;points=[];autosize=1;strokeColor=none;fillColor=none;" vertex="1" parent="1">
          <mxGeometry x="420" y="850" width="60" height="20" as="geometry" />
        </mxCell>
        <mxCell id="AwvMzt33uURzhuPgtbTJ-149" value="" style="endArrow=none;html=1;rounded=0;" edge="1" parent="1" target="AwvMzt33uURzhuPgtbTJ-132">
          <mxGeometry width="50" height="50" relative="1" as="geometry">
            <mxPoint x="450" y="850" as="sourcePoint" />
            <mxPoint x="450" y="880" as="targetPoint" />
          </mxGeometry>
        </mxCell>
        <mxCell id="AwvMzt33uURzhuPgtbTJ-153" value="到位檢查" style="text;html=1;align=center;verticalAlign=middle;resizable=0;points=[];autosize=1;strokeColor=none;fillColor=none;" vertex="1" parent="1">
          <mxGeometry x="490" y="990" width="60" height="20" as="geometry" />
        </mxCell>
        <mxCell id="AwvMzt33uURzhuPgtbTJ-157" value="回傳狀態碼" style="text;html=1;align=center;verticalAlign=middle;resizable=0;points=[];autosize=1;strokeColor=none;fillColor=none;" vertex="1" parent="1">
          <mxGeometry x="480" y="1020" width="80" height="20" as="geometry" />
        </mxCell>
        <mxCell id="AwvMzt33uURzhuPgtbTJ-160" value="檢查fail" style="text;html=1;align=center;verticalAlign=middle;resizable=0;points=[];autosize=1;strokeColor=none;fillColor=none;" vertex="1" parent="1">
          <mxGeometry x="365" y="990" width="50" height="20" as="geometry" />
        </mxCell>
        <mxCell id="AwvMzt33uURzhuPgtbTJ-177" value="plc回傳：06" style="text;html=1;align=center;verticalAlign=middle;resizable=0;points=[];autosize=1;strokeColor=none;fillColor=none;" vertex="1" parent="1">
          <mxGeometry x="475" y="1180" width="80" height="20" as="geometry" />
        </mxCell>
        <mxCell id="AwvMzt33uURzhuPgtbTJ-180" value="動作：料盤退回" style="text;html=1;align=center;verticalAlign=middle;resizable=0;points=[];autosize=1;strokeColor=none;fillColor=none;" vertex="1" parent="1">
          <mxGeometry x="465" y="1200" width="100" height="20" as="geometry" />
        </mxCell>
        <mxCell id="AwvMzt33uURzhuPgtbTJ-183" value="plc回傳：06" style="text;html=1;align=center;verticalAlign=middle;resizable=0;points=[];autosize=1;strokeColor=none;fillColor=none;" vertex="1" parent="1">
          <mxGeometry x="480" y="1230" width="80" height="20" as="geometry" />
        </mxCell>
        <mxCell id="AwvMzt33uURzhuPgtbTJ-188" value="到位檢查" style="text;html=1;align=center;verticalAlign=middle;resizable=0;points=[];autosize=1;strokeColor=none;fillColor=none;" vertex="1" parent="1">
          <mxGeometry x="490" y="1250" width="60" height="20" as="geometry" />
        </mxCell>
        <mxCell id="AwvMzt33uURzhuPgtbTJ-189" value="回傳狀態碼" style="text;html=1;align=center;verticalAlign=middle;resizable=0;points=[];autosize=1;strokeColor=none;fillColor=none;" vertex="1" parent="1">
          <mxGeometry x="480" y="1280" width="80" height="20" as="geometry" />
        </mxCell>
        <mxCell id="AwvMzt33uURzhuPgtbTJ-203" value="結果回傳" style="text;html=1;align=center;verticalAlign=middle;resizable=0;points=[];autosize=1;strokeColor=none;fillColor=none;" vertex="1" parent="1">
          <mxGeometry x="170" y="1410" width="60" height="20" as="geometry" />
        </mxCell>
      </root>
    </mxGraphModel>
  </diagram>
</mxfile>
